<?xml version="1.0" standalone="no"?>
<!DOCTYPE svg PUBLIC "-//W3C//DTD SVG 20010904//EN"
 "http://www.w3.org/TR/2001/REC-SVG-20010904/DTD/svg10.dtd">
<svg version="1.0" xmlns="http://www.w3.org/2000/svg"
 width="591.000000pt" height="591.000000pt" viewBox="0 0 591.000000 591.000000"
 preserveAspectRatio="xMidYMid meet">
<metadata>
Created by potrace 1.11, written by Peter Selinger 2001-2013
</metadata>
<g transform="translate(0.000000,591.000000) scale(0.100000,-0.100000)"
fill="#000000" stroke="none">
<path d="M1351 4167 c0 -7 8 -24 17 -39 9 -15 62 -103 116 -195 54 -92 105
-175 113 -184 12 -15 56 -16 397 -17 211 0 399 -3 417 -7 69 -15 158 -67 219
-128 102 -101 171 -270 186 -454 22 -251 -12 -422 -112 -578 -45 -69 -91 -116
-160 -163 -102 -70 -136 -78 -324 -77 -191 1 -220 8 -247 64 -17 33 -18 67
-18 363 0 284 -2 327 -15 330 -8 2 -87 4 -175 3 l-160 0 -1 -535 c0 -294 3
-551 8 -570 19 -73 1 -70 479 -70 392 1 433 2 498 20 279 78 480 322 567 690
37 154 47 253 47 455 1 178 -14 320 -42 405 -5 14 -15 45 -22 70 -50 172 -180
365 -314 465 -22 17 -42 32 -45 35 -27 27 -181 98 -248 114 -77 19 -1182 21
-1181 3z"/>
<path d="M2644 4155 c231 -80 363 -192 507 -429 l37 -60 118 -3 c177 -4 207
-9 280 -46 94 -48 144 -125 149 -225 5 -126 -51 -216 -170 -274 -53 -25 -70
-28 -150 -28 -49 1 -99 1 -110 1 -19 -1 -20 -8 -21 -114 -1 -104 -7 -187 -19
-247 -15 -81 -23 -117 -29 -130 -6 -15 10 -37 124 -170 21 -25 116 -137 210
-250 94 -113 183 -220 199 -237 l28 -33 397 0 397 0 -56 68 c-31 37 -67 78
-79 92 -12 14 -51 61 -86 105 -35 44 -67 82 -70 85 -3 3 -62 73 -130 155 -69
83 -127 152 -130 155 -3 3 -27 32 -55 65 -27 33 -55 66 -62 73 -20 21 -1 45
75 95 243 162 352 413 307 709 -46 304 -225 519 -514 620 -31 10 -74 22 -96
25 -22 3 -50 9 -62 14 -12 4 -255 8 -540 8 l-518 0 69 -24z"/>
</g>
</svg>
